<svg xmlns="http://www.w3.org/2000/svg" xmlns:xlink="http://www.w3.org/1999/xlink" x="0px" y="0px" viewBox="0 0 100 40"
    style="enable-background:new 0 0 100 40;" xml:space="preserve" fill="#520038">
    <path class="st0"
        d="M20.3,13.5c0.2-0.3,0.3-0.5,0.3-0.8s0-0.5-0.1-0.7c-0.2-0.3-0.6-0.6-1.1-0.9c-0.5-0.2-1.1-0.3-1.9-0.3 c-0.7,0-1.4,0.1-2.1,0.4c-0.6,0.3-1.2,0.6-1.7,1.1s-0.9,1-1.2,1.6C12.2,14.4,12,15,12,15.6c-0.1,1,0.3,2,1,2.8l0.4,0.4 c0.2,0.2,0.4,0.4,0.6,0.6c0.2,0.2,0.5,0.5,0.7,0.7c0.3,0.3,0.5,0.5,0.8,0.8c0.4,0.3,0.6,0.7,0.8,1c0.2,0.3,0.2,0.7,0.2,1 c0,0.2-0.1,0.6-0.2,0.9s-0.3,0.7-0.6,1s-0.6,0.6-1.1,0.8c-0.4,0.2-0.9,0.3-1.5,0.3c-0.5,0-0.9-0.1-1.1-0.2c-0.3-0.1-0.5-0.3-0.6-0.5 c-0.2-0.2-0.3-0.4-0.3-0.7c-0.1-0.3-0.1-0.6,0-1v-0.4h-0.4c-0.6,0-1.1,0.2-1.4,0.6c-0.3,0.4-0.5,0.8-0.6,1.4c0,0.4,0.1,0.8,0.4,1.1 c0.2,0.3,0.5,0.5,0.9,0.7c0.3,0.2,0.7,0.3,1.1,0.4c0.4,0.1,0.8,0.1,1.1,0.1c0.8,0,1.6-0.1,2.4-0.4s1.5-0.6,2.1-1.1s1.1-1,1.5-1.7 s0.6-1.4,0.7-2.2c0-0.4-0.1-0.9-0.3-1.4c-0.2-0.5-0.5-0.9-0.9-1.3s-0.8-0.8-1.2-1.2c-0.4-0.3-0.8-0.7-1.2-1.1 c-0.3-0.4-0.6-0.7-0.8-1.1c-0.2-0.4-0.3-0.8-0.3-1.3c0-0.4,0.1-0.8,0.3-1.1s0.4-0.6,0.6-0.8c0.3-0.2,0.5-0.4,0.9-0.5 c0.8-0.3,1.6-0.2,2.2,0.3c0.2,0.2,0.3,0.3,0.4,0.6c0.1,0.2,0.1,0.4,0.1,0.6v0.5l0.5-0.1c0.2-0.1,0.5-0.2,0.7-0.4 C20,13.8,20.2,13.6,20.3,13.5" />
    <path class="st0"
        d="M47.8,24c-0.3,0.2-0.3,0.2-0.7,0.4c-0.3,0.2-0.6,0.3-0.9,0.5c-0.3,0.1-0.5,0.2-0.7,0.2c0,0,0,0-0.1-0.1 c-0.1-0.2-0.1-0.3-0.1-0.3c0-0.2,0-0.4,0.1-0.6c0.1-0.3,0.1-0.5,0.2-0.8c0-0.2,0.1-0.4,0.2-0.8c0.1-0.4,0.2-0.8,0.4-1.2 c0.1-0.5,0.3-1,0.5-1.5l0.5-1.5c0.2-0.4,0.3-0.8,0.4-1.1c0.1-0.3,0.2-0.5,0.2-0.7L48,16c0.1-0.2,0.1-0.3,0.2-0.6 c0.1-0.2,0.2-0.5,0.3-0.8s0.2-0.7,0.4-1.2c0.1-0.2,0.2-0.5,0.3-0.7c0.1-0.3,0.2-0.5,0.3-0.7c0.1-0.3,0.2-0.5,0.3-0.8v-0.1 c0-0.4-0.3-0.6-0.6-0.6l0,0c-0.1,0-0.3,0-0.4,0.1c-0.1,0-0.3,0.1-0.4,0.1c-0.2,0.1-0.4,0.2-0.5,0.3c-0.2,0.1-0.3,0.3-0.5,0.4 c-0.1,0.1-0.2,0.3-0.3,0.5L47,12.3c-0.1,0.2-0.1,0.4-0.2,0.6l-0.3,0.8c-0.1,0.3-0.2,0.5-0.3,0.8l-0.6,1.9L45,16.5 c-0.9,0.1-1.7,0.4-2.5,0.9s-1.6,1.1-2.3,2c-1.1,1.2-1.8,2.4-2.2,3.7l0,0l-0.3,0.2c-0.3,0.3-0.6,0.5-1,0.8c-0.3,0.3-0.6,0.5-0.9,0.7 c-0.3,0.2-0.6,0.4-0.9,0.5c-0.2,0.1-0.5,0.2-0.7,0.2c0,0,0-0.1,0-0.4c0,0,0-0.2,0.3-1.1c0.2-0.7,0.5-1.4,0.8-2.4 c0.2-0.5,0.3-0.8,0.4-1.1c0.1-0.3,0.3-0.5,0.4-0.9c0.1-0.1,0.2-0.2,0.3-0.3c0.1-0.1,0.2-0.2,0.3-0.3c0.1-0.1,0.1-0.3,0.2-0.4 c0-0.1,0-0.3,0-0.5c0-0.3-0.1-0.6-0.3-0.8c-0.2-0.2-0.4-0.3-0.6-0.5c-0.2-0.1-0.5-0.2-0.7-0.2s-0.4-0.1-0.6-0.1 c-0.8,0-1.6,0.2-2.5,0.6c-0.8,0.4-1.7,1-2.6,2c-0.4,0.4-0.7,0.8-1,1.3s-0.6,1-0.8,1.5c-0.2,0.4-0.3,0.8-0.4,1.2l0,0 c-0.5,0.4-1.1,0.8-1.6,1.1c-0.5,0.4-1.1,0.7-1.7,0.9c-0.5,0.2-1,0.4-1.4,0.4c-0.1,0-0.2,0-0.2,0c-0.1-0.1-0.1-0.1-0.1-0.2 s-0.1-0.2-0.1-0.3c0-0.1,0-0.2,0-0.3c0-0.1,0-0.2,0-0.4c0-0.2,0.1-0.4,0.1-0.6c0.1-0.2,0.1-0.4,0.2-0.6c0-0.2,0.1-0.3,0.1-0.4 c0.6-0.6,1.2-1.2,1.9-1.9c0.6-0.7,1.3-1.5,1.8-2.2c0.6-0.8,1.2-1.5,1.6-2.3c0.5-0.8,0.9-1.5,1.3-2.2s0.7-1.4,0.9-1.9 c0.2-0.6,0.3-1.1,0.3-1.6c0-0.1,0-0.2,0-0.3c0-0.2-0.1-0.3-0.2-0.5c-0.1-0.1-0.2-0.2-0.4-0.3c-0.2-0.1-0.4-0.1-0.7-0.1 c-0.8,0-1.6,0.4-2.5,1.1c-0.8,0.7-1.8,1.9-2.8,3.5c-0.8,1.5-1.5,2.9-2.1,4.3c-0.3,0.6-0.5,1.2-0.8,1.9c-0.3,0.7-0.5,1.3-0.7,1.9 s-0.3,1.3-0.5,1.8c-0.1,0.6-0.2,1.2-0.2,1.6c0,0.5,0.1,0.9,0.3,1.3c0.2,0.2,0.5,0.5,1.1,0.5c0.4,0,0.9-0.1,1.5-0.2 c0.5-0.1,1.1-0.4,1.8-0.7c0.6-0.3,1.4-0.8,2.1-1.3c0.2-0.1,0.3-0.2,0.5-0.3v0.1c0,0.7,0.1,1.2,0.3,1.6c0.2,0.3,0.5,0.7,1.4,0.7 c0.6,0,1.3-0.3,2.1-0.8c0.4-0.3,0.9-0.7,1.3-1.1c0,0.2,0,0.3-0.1,0.5c0,0.2,0,0.4,0,0.6c0,0.3,0.1,0.6,0.2,0.9 c0.2,0.3,0.5,0.4,0.8,0.4s0.7-0.1,1.2-0.4c0.4-0.2,0.9-0.6,1.4-0.9c0.5-0.4,1-0.7,1.5-1.1c0.2-0.2,0.4-0.3,0.5-0.5 c0,0.1,0,0.2,0,0.4c0,0.6,0.1,1.2,0.3,1.6c0.3,0.4,0.7,0.7,1.3,0.7l0,0c0.2,0,0.3-0.1,0.5-0.1c0.2-0.1,0.4-0.1,0.6-0.3 c0.2-0.1,0.4-0.3,0.6-0.4c0.2-0.2,0.5-0.4,0.8-0.7c0.5-0.5,0.9-0.9,1.3-1.3c0.1-0.1,0.1-0.2,0.2-0.2l0,0c0,0.2-0.1,0.4-0.1,0.6 s0,0.4,0,0.5c0,0.6,0.1,1,0.3,1.2c0.1,0.2,0.4,0.4,1,0.4c0.2,0,0.5-0.1,1-0.2c0.4-0.2,0.8-0.4,1.4-0.6c0.5-0.3,0.3-0.1,0.9-0.5 C47.4,25.1,47.5,24.6,47.8,24M40.8,24.9C40.7,25,40.6,25,40.5,25s-0.1,0-0.2,0l-0.1-0.1c0-0.1-0.1-0.3,0-0.6c0-0.5,0.1-0.9,0.2-1.4 c0.1-0.5,0.3-1,0.6-1.6c0.5-1.1,1.1-1.9,1.7-2.4c0.6-0.5,1.3-0.8,2-0.8h0.2l-1,2.7c-0.1,0.3-0.2,0.6-0.4,0.8 c-0.2,0.3-0.3,0.5-0.5,0.8c-0.2,0.2-0.4,0.5-0.6,0.7c-0.2,0.2-0.3,0.4-0.4,0.5c-0.3,0.4-0.6,0.6-0.7,0.8 C41,24.7,40.9,24.8,40.8,24.9 M29.8,25.1c-0.1,0-0.2,0-0.3-0.2c0,0-0.2-0.2-0.2-0.7c0-0.2,0-0.5,0.1-0.8s0.1-0.7,0.2-1 c0.1-0.4,0.2-0.7,0.4-1.1c0.1-0.3,0.3-0.6,0.4-0.9c0.3-0.5,0.6-0.9,0.8-1.2c0.3-0.3,0.5-0.5,0.8-0.7c0.3-0.2,0.5-0.3,0.8-0.4 s0.6-0.1,0.9-0.1c0,0,0,0,0.2,0c0.1,0,0.2,0.1,0.3,0.1c0,0,0.1,0,0.1,0.1l0,0c-0.1,0.1-0.3,0.3-0.4,0.4c-0.1,0.2-0.2,0.4-0.3,0.5 c-0.1,0.2-0.2,0.4-0.2,0.5c-0.1,0.3-0.3,0.7-0.4,1.1c-0.1,0.4-0.3,0.8-0.5,1.3c-0.4,1-1,1.8-1.5,2.2C30.6,24.8,30.2,25.1,29.8,25.1 M27.8,11.1C27.9,11,28,11,28.1,11c0.1,0,0.1,0,0.2,0c0,0.1,0,0.2,0,0.4c0,0.4-0.1,1-0.3,1.6c-0.2,0.6-0.6,1.3-0.9,2 c-0.4,0.7-0.8,1.4-1.3,2.1s-1,1.3-1.4,1.9c-0.3,0.4-0.6,0.8-0.9,1.1c0-0.1,0.1-0.3,0.2-0.4c0.2-0.5,0.4-1,0.6-1.5s0.4-1.1,0.6-1.6 s0.4-1,0.6-1.4s0.4-0.8,0.5-1.1c0.4-0.6,0.7-1.2,0.9-1.6c0.2-0.4,0.4-0.7,0.6-0.9C27.6,11.3,27.8,11.2,27.8,11.1" />
    <path class="st0"
        d="M66.1,22.6c-0.3,0.2-0.7,0.5-1.1,0.8s-0.7,0.5-1,0.7c-0.3,0.2-0.6,0.4-0.9,0.5c-0.4,0.2-0.8,0.2-0.8,0.2l0,0 c0,0,0-0.1,0-0.2s0-0.3,0-0.4c0,0,0-0.1,0.1-0.6c0.1-0.4,0.2-0.9,0.4-1.4l0.5-1.8c0.2-0.7,0.4-1.3,0.6-1.9l0.5-1.7 c0.2-0.5,0.3-0.9,0.3-1c0.1-0.2,0.3-0.5,0.4-0.9c0.2-0.4,0.3-0.7,0.5-1.1c0.1-0.4,0.3-0.7,0.4-1.1c0.1-0.4,0.2-0.6,0.2-0.8 s0-0.4-0.1-0.6c-0.1-0.3-0.3-0.5-0.6-0.5c-0.2,0-0.5,0.1-0.7,0.1c-0.3,0.1-0.5,0.3-0.8,0.7c-0.1,0.2-0.3,0.4-0.4,0.6 c-0.1,0.2-0.2,0.4-0.3,0.7c-0.1,0.2-0.2,0.5-0.3,0.8l-0.3,1c-0.3,0.6-0.7,1.2-1.1,1.9c-0.4,0.7-0.9,1.3-1.3,2 c-0.5,0.7-0.9,1.3-1.4,1.9s-0.9,1.1-1.2,1.6c-0.3,0.3-0.5,0.6-0.7,0.8v-0.1c0-0.2,0.1-0.5,0.2-1.1c0.1-0.5,0.3-1.2,0.5-1.9 c0.2-0.7,0.4-1.4,0.6-2.2c0.2-0.8,0.4-1.5,0.6-2.2c0.2-0.7,0.4-1.2,0.6-1.7c0.2-0.5,0.3-1.1,0.3-1.6c0-0.6-0.4-0.7-0.5-0.7 c-0.2,0-0.8-0.1-1.3,0.2c-0.2,0.2-0.4,0.4-0.6,0.6c-0.1,0.2-0.2,0.3-0.2,0.4c0,0.1-0.1,0.2-0.1,0.3S57,13.2,57,13.4 c-0.1,0.2-0.1,0.4-0.2,0.7c-0.2,0.4-0.5,1-0.8,1.7c-0.4,0.7-0.8,1.4-1.2,2.1c-0.4,0.7-0.8,1.4-1.3,2.1c-0.4,0.7-0.8,1.2-1.1,1.7 c-0.4,0.5-0.7,1-1,1.3s-0.5,0.6-0.8,0.8c-0.2,0.2-0.4,0.3-0.5,0.4c-0.2,0.1-0.2,0.1-0.3,0.1c0-0.1-0.1-0.2-0.1-0.3 c0-0.1-0.1-0.3-0.1-0.4c0-0.2,0-0.3,0-0.5v-0.3L49,22.7l0,0c-0.4,0.2-0.7,0.5-1,1s-0.5,1-0.5,1.6c0,0.1,0,0.2,0,0.4 c0,0.2,0.1,0.4,0.1,0.5c0.1,0.2,0.2,0.3,0.4,0.5c0.3,0.3,1,0.3,1.6,0c0.3-0.1,0.6-0.3,1-0.6c0.3-0.3,0.7-0.7,1.1-1.2 c0.4-0.5,0.9-1.1,1.4-1.9c0.2-0.2,0.4-0.6,0.6-0.9c0.3-0.4,0.5-0.8,0.8-1.3c0.3-0.4,0.6-0.9,0.8-1.4c0.3-0.4,0.5-0.8,0.7-1.2 c-0.1,0.5-0.3,1.1-0.4,1.7L55,22.5c-0.2,0.8-0.4,1.5-0.5,2.1c-0.2,0.9-0.2,1.2-0.2,1.2c0,0.2,0,0.4,0.1,0.6s0.2,0.4,0.7,0.3 c0.2,0,0.4-0.1,0.6-0.2c0.2-0.1,0.3-0.3,0.5-0.5s0.3-0.4,0.5-0.6s0.3-0.4,0.4-0.5c1.4-1.7,2.6-3.2,3.4-4.4c0.4-0.5,0.7-0.9,1-1.3 c-0.2,0.7-0.4,1.3-0.6,1.9c-0.1,0.5-0.3,1-0.4,1.5c-0.1,0.5-0.3,0.9-0.4,1.4c-0.1,0.4-0.2,0.8-0.3,1.1c-0.1,0.3-0.1,0.6-0.1,0.7 c0,0.2,0,0.4,0.1,0.7c0.1,0.2,0.3,0.5,0.9,0.5c0.1,0,0.3,0,0.5-0.1c0.2,0,0.4-0.1,0.6-0.3c0.2-0.1,0.5-0.3,0.9-0.5 c0.3-0.2,0.7-0.4,1.2-0.7c0.3-0.2,0.6-0.4,0.9-0.6s0.5-0.3,0.7-0.5c0.2-0.1,0.4-0.3,0.6-0.4s0.3-0.3,0.5-0.4l0.2-0.3 c0,0,0-0.5-0.4-0.6C66.2,22.5,66.1,22.6,66.1,22.6" />
    <path class="st0"
        d="M91.2,16.5c-0.2-0.1-0.3-0.2-0.5-0.3c-0.2-0.1-0.4-0.1-0.6-0.2c-0.5-0.1-1.1-0.1-1.7,0c-0.3,0-0.7,0.1-0.9,0.2 c-0.6,0.2-1.2,0.4-1.6,0.7c-0.4,0.3-0.7,0.6-1,0.9c-0.2,0.3-0.4,0.6-0.5,0.9s-0.2,0.5-0.1,0.8c0,0.4,0.1,0.7,0.2,1 c0.1,0.2,0.3,0.4,0.5,0.6c0.3,0.3,0.7,0.6,1.1,0.8c0.4,0.2,0.7,0.5,1.1,0.8c0.2,0.1,0.3,0.3,0.4,0.4s0.1,0.3,0.1,0.6 c0,0.2,0,0.4-0.1,0.6s-0.3,0.4-0.4,0.5c-0.2,0.2-0.4,0.3-0.7,0.3c-0.5,0.2-1.1,0.2-1.5,0c-0.2-0.1-0.3-0.2-0.4-0.3 c-0.1-0.1-0.2-0.3-0.3-0.4c-0.1-0.2-0.1-0.3-0.2-0.5L84,23.6h-0.3l-0.2-0.1L83,23.8l-0.9,0.7c-0.2,0.1-0.3,0.2-0.5,0.3 c-0.3,0.2-0.6,0.3-0.9,0.4s-0.6,0.2-1,0.2s-0.7-0.1-1-0.5s-0.5-0.9-0.6-1.6c-0.1-0.5-0.2-0.9-0.3-1.5l-0.2-1.4 c0-0.3-0.1-0.5-0.3-0.6c0,0,0,0-0.1,0c0,0,0,0,0.1-0.1c0.1-0.2,0.3-0.4,0.5-0.6s0.5-0.4,0.8-0.7c0.4-0.4,0.8-0.6,1.2-0.8 c0.5-0.2,0.8-0.2,0.9-0.2c0,0.1,0,0.2-0.1,0.5c-0.1,0.2-0.2,0.4-0.4,0.6L80,18.7c0,0-0.1,0.6,0.4,0.8l0.3-0.2c0.8-0.5,1.3-1,1.7-1.4 c0.4-0.4,0.6-0.9,0.6-1.4c0-0.2-0.1-0.4-0.2-0.5c-0.1-0.1-0.2-0.2-0.3-0.2c-0.1-0.1-0.2-0.1-0.4-0.1c-0.1,0-0.2,0-0.2,0 c-0.3,0-0.5,0-0.8,0.1s-0.6,0.2-0.9,0.3c-0.3,0.1-0.6,0.3-0.9,0.5s-0.6,0.4-0.9,0.7c-0.4,0.4-0.8,0.7-1,0.9 c-0.3,0.2-0.5,0.5-0.7,0.7c-0.1,0.1-0.2,0.2-0.3,0.3c0.2-0.5,0.4-1,0.6-1.7c0-0.1,0.1-0.2,0.1-0.4l0.3-1c0.1-0.4,0.3-0.8,0.4-1.3 s0.3-0.9,0.5-1.4c0.4-1.1,0.8-2.3,1.2-3.7c0.1-0.3,0-0.5-0.2-0.6C79.2,9,79.1,9,78.9,9c-0.2,0-0.3,0-0.4,0S78.2,9.1,78,9.1 c-0.3,0.1-0.5,0.2-0.7,0.3S77,9.6,76.9,9.7s-0.2,0.2-0.3,0.3c0,0.1-0.1,0.2-0.1,0.3s0,0.2,0,0.2v0.1c0,0.1,0,0.2-0.2,0.8 c-0.1,0.4-0.3,1.1-0.6,2c-0.3,0.9-0.6,2-1.1,3.3c-0.4,1.3-1,2.9-1.6,4.9l-0.6,1.8c-0.1,0.2-0.1,0.4-0.2,0.6c-0.2,0.5-0.3,0.8-0.3,1 c-0.1,0.2-0.1,0.4-0.1,0.6c0,0.3,0.1,0.4,0.2,0.5c0.2,0.2,0.7,0.2,1.3-0.1c0.3-0.1,0.5-0.3,0.6-0.4c0.2-0.2,0.3-0.4,0.4-0.6l0.3-0.7 c0.1-0.2,0.1-0.4,0.2-0.6s0.1-0.4,0.2-0.6s0.2-0.4,0.3-0.7c0-0.1,0.1-0.2,0.1-0.3l0.1,0.5c0.1,0.3,0.1,0.6,0.2,0.9s0.1,0.6,0.2,0.8 c0.3,1,0.6,1.7,1.2,2.2c0.5,0.4,1.1,0.6,1.7,0.6c0.4,0,0.8-0.1,1.3-0.2c0.4-0.2,0.9-0.4,1.3-0.6c0.3-0.2,0.5-0.3,0.8-0.5l0,0 c0.2,0.2,0.4,0.4,0.6,0.5s0.5,0.2,0.8,0.3s0.6,0.1,0.8,0.1c0.5,0,0.8,0,1.1-0.1c0.3,0,0.6-0.1,0.9-0.2c0.5-0.2,0.9-0.4,1.4-0.7 c0.4-0.3,0.8-0.6,1.1-1c0.3-0.4,0.6-0.7,0.7-1.1c0.2-0.4,0.3-0.8,0.3-1.1c0-0.3,0-0.5-0.1-0.8c-0.1-0.2-0.3-0.5-0.5-0.7 s-0.4-0.3-0.6-0.5S88.3,20.2,88,20l-0.7-0.5c-0.2-0.1-0.4-0.3-0.6-0.4s-0.3-0.3-0.3-0.6c0-0.2,0-0.4,0.1-0.5 c0.1-0.2,0.2-0.3,0.4-0.4c0.2-0.1,0.4-0.2,0.6-0.2c0.3-0.1,0.6-0.1,1,0c0.2,0,0.3,0.1,0.4,0.1s0.2,0.1,0.3,0.2 c0.1,0.1,0.1,0.1,0.1,0.2c0,0,0,0.2,0.1,0.4c0.2-0.1,0.4-0.1,0.4-0.1c0.4-0.1,0.7-0.3,0.9-0.5c0.3-0.2,0.5-0.5,0.6-0.9l0.1-0.3 L91.2,16.5z" />
    <path class="st0"
        d="M72.5,9.7V9.4c0-0.1,0-0.3,0-0.4c0-0.7-0.1-1-0.8-1.5c-0.1-0.1-0.2-0.1-0.2-0.2c-0.1-0.1-0.1-0.1-0.2-0.2 L71.1,7L71,7.1c0,0.1,0,0.1,0,0.2v0.1v0.2l0.1,0.1c0.2,0.1,0.2,0.1,0.2,0.3l0,0h-0.1h-0.1H71h-0.1l0,0c0.2,0.3,0.3,0.4,0.5,0.5 c0.1,0,0.2,0.1,0.3,0.2c0.1,0.4,0,2.6-0.2,2.9c0,0.1-0.1,0.1-0.1,0.1c-0.1,0.1-0.1,0.2-0.2,0.4l-0.1,0.2C71,12.7,71,12.7,71,12.8 c-0.1,0-0.1,0.1-0.3,0.4c-0.1,0.1-0.1,0.2-0.2,0.3c0,0.1,0,0.1-0.1,0.1c-0.1-0.4,0-0.7,0.1-0.9s0.2-0.4,0.2-0.7 c0-0.2-0.1-0.4-0.1-0.5c0-0.2,0-0.4-0.3-0.6c-0.2-0.2-0.4-0.3-0.7-0.3c-0.3,0-0.5,0.1-0.7,0.3c-0.3,0.3-0.3,1.3-0.3,1.6l0,0l0,0 c0.1,0,0.1,0.1,0.1,0.1c0.1,0.1,0.2,0.1,0.2,0.5c0,0.3-0.1,0.4-0.2,0.5c-0.2-0.2-0.5-0.5-0.5-0.9c-0.1-0.9-0.2-1.2-0.3-1.4 c-0.1-0.2-0.1-0.2,0.1-2l0.1-0.8c0-0.2,0.3-0.3,0.6-0.4C68.9,8,69,8,69.2,7.9l0.1-0.1l-0.1-0.1c0-0.1-0.1-0.1-0.1-0.1l0,0H69l0,0 l0,0c0.2-0.2,0.2-0.1,0.3-0.1c0.1,0,0.3,0,0.4-0.1l0.1-0.1V7.2C69.7,7,69.5,7,69.3,7c0.1-0.1,0.1-0.1,0.2-0.3V6.5h-0.2 c-0.2,0-0.4,0.3-0.8,0.5c-0.1,0.1-0.2,0.2-0.3,0.2C68.1,7.3,68,7.3,68,7.4c-0.3,0.2-0.4,0.3-0.5,1l-0.1,0.4c-0.4,1.9-0.4,1.9-0.1,4 v0.3c0,0.3,0.1,0.5,0.1,0.7c0.1,0.4,0.2,0.6,0.3,0.8c0.3,0.7,0.9,2.2,0.8,2.7c-0.1,0.7-0.3,1.1-0.5,1.5c-0.3,0.6-0.5,1-0.1,2.1 c0.1,0.3,0.2,0.6,0.3,0.9c0.3,0.9,0.6,1.8,0.3,2.7c-0.3,1.1-0.2,1.5-0.1,1.9c0.1,0.3,0.2,0.7,0.1,1.5c0,0.5-0.1,0.5-0.2,0.5 s-0.2,0.1-0.3,0.3l0,0c0,0.2,0.1,0.3,0.2,0.4c0.2,0.2,0.4,0.4,0.4,0.9v0.1c0,0.2,0,0.5,0.2,0.6s0.3,0.1,0.4,0 c0.3-0.3,0.3-1.2,0.2-2.4c0-0.3,0-0.7,0-0.9c0.2,0.5,0.4,1.1,0.3,1.6s-0.1,0.7,0,1.3c0.1,0.4,0.1,0.7,0.5,0.7c0.1,0,0.1,0,0.2,0l0,0 l0,0c0.5-0.7,0.2-2-0.1-2.7c-0.2-0.6-0.2-1.1-0.2-1.7c0-0.4,0-0.7-0.1-1.1c0-0.1,0-0.3-0.1-0.4c-0.1-0.6-0.3-1.4,0.1-2.2 c0.3-0.6,0.6-1.5,0.7-2l0.1-0.3l0,0c0.2-0.6,0.1-1.1,0.1-1.6c0-0.4-0.1-0.7,0-1.3c0-0.4,0-0.8,0.1-1.1c0.1-0.5,0.3-1.1,0-1.8 c-0.2-0.5-0.1-0.6,0-0.8c0-0.1,0.1-0.2,0.2-0.4c0.2-0.4,0.4-0.9,0.5-1.3l0,0C72.6,11,72.6,11,72.5,9.7" />
    <path class="st0"
        d="M49.4,1.2L49.4,1.2h0.7c13.2,0.1,25.6,2.2,35,5.9c8.9,3.6,14,8.3,13.9,13c0,4.7-5.1,9.4-13.8,12.8 c-9.2,3.6-21.4,5.6-34.5,5.6H50c-13.2-0.1-25.6-2.2-35-5.9c-8.9-3.5-14-8.3-14-13s5.1-9.4,13.8-12.8C24,3.2,36.3,1.2,49.4,1.2 M49.4,0.2C22.1,0.2,0.1,8.8,0,19.6c-0.1,10.9,22.3,19.8,49.9,19.9c0.3,0,0.5,0,0.7,0c27.3,0,49.3-8.6,49.4-19.4S77.7,0.4,50.1,0.2 C49.9,0.2,49.6,0.2,49.4,0.2L49.4,0.2z" />
    <g>
        <path class="st0" d="M92.6,5.4h-0.7v1.5h-0.3V5.4h-0.7V5.1h1.6L92.6,5.4z" />
        <path class="st0"
            d="M93,6.9L93,6.9c0-0.2,0-0.2,0-0.3s0-0.2,0-0.3c0-0.1,0-0.2,0-0.3c0-0.2,0-0.5,0-0.8h0.4L94,6.6l0.5-1.4h0.4 c0,0.3,0,0.6,0,0.8c0,0.1,0,0.2,0,0.3c0,0.1,0,0.2,0,0.3c0,0.1,0,0.2,0,0.2c0,0.1,0,0.1,0,0.1h-0.3V5.4l-0.5,1.5h-0.3l-0.5-1.6 l-0.1,1.5L93,6.9z" />
    </g>
</svg>